<svg width="46" height="45" viewBox="0 0 46 45" fill="none" xmlns="http://www.w3.org/2000/svg">
<rect width="45.4167" height="45" rx="8.18182" fill="#2E60B8" fill-opacity="0.1"/>
<path d="M34.9596 16.9423C34.9594 16.4895 34.8626 16.0894 34.6667 15.746C34.4743 15.4083 34.1862 15.1253 33.7998 14.9015C30.61 13.0622 27.417 11.2285 24.2282 9.38738C23.3685 8.89106 22.535 8.90916 21.6817 9.41259C20.412 10.1614 14.0553 13.8033 12.1611 14.9004C11.381 15.352 11.0014 16.0432 11.0012 16.9415C11 20.6404 11.0012 24.3392 11 28.0382C11.0002 28.4811 11.0929 28.8734 11.2801 29.2117C11.4726 29.5596 11.7647 29.8504 12.1601 30.0792C14.0544 31.1764 20.4119 34.818 21.6813 35.567C22.535 36.0707 23.3685 36.0887 24.2285 35.5922C27.4174 33.7509 30.6105 31.9174 33.8008 30.0781C34.1962 29.8493 34.4883 29.5583 34.6808 29.2107C34.8677 28.8725 34.9606 28.4801 34.9608 28.0372C34.9608 28.0372 34.9608 20.6413 34.9596 16.9423Z" fill="#5C8DBC"/>
<path d="M23.0182 22.4541L11.2812 29.212C11.4737 29.5599 11.7658 29.8507 12.1612 30.0795C14.0555 31.1767 20.4131 34.8183 21.6824 35.5673C22.5361 36.071 23.3697 36.089 24.2296 35.5925C27.4185 33.7513 30.6117 31.9177 33.802 30.0784C34.1973 29.8497 34.4894 29.5587 34.6819 29.211L23.0182 22.4541Z" fill="#1A4674"/>
<path d="M19.5391 24.4559C20.222 25.6482 21.5059 26.4524 22.9788 26.4524C24.4607 26.4524 25.7519 25.6379 26.4314 24.4329L23.0154 22.4541L19.5391 24.4559Z" fill="#1A4674"/>
<path d="M34.9582 16.9424C34.958 16.4896 34.8611 16.0895 34.6653 15.7461L23.0156 22.4539L34.6793 29.2108C34.8663 28.8726 34.9592 28.4802 34.9594 28.0373C34.9594 28.0373 34.9594 20.6414 34.9582 16.9424Z" fill="#1B598E"/>
<path d="M34.3178 22.937H33.4064V23.8487H32.4948V22.937H31.5834V22.0257H32.4948V21.1143H33.4064V22.0257H34.3178V22.937ZM30.992 22.937H30.0807V23.8487H29.1693V22.937H28.2578V22.0257H29.1693V21.1143H30.0807V22.0257H30.992V22.937Z" fill="white"/>
<path d="M26.4331 24.4329C25.7536 25.638 24.4624 26.4524 22.9805 26.4524C21.5077 26.4524 20.2237 25.6482 19.5408 24.4559C19.1977 23.8576 19.0175 23.1798 19.0182 22.4901C19.0182 20.3019 20.7923 18.528 22.9805 18.528C24.4438 18.528 25.721 19.3221 26.4073 20.5023L29.8705 18.508C28.494 16.1318 25.924 14.5332 22.9805 14.5332C18.5858 14.5332 15.0234 18.0957 15.0234 22.4901C15.0234 23.9318 15.407 25.2838 16.0773 26.45C17.4503 28.8387 20.0276 30.4472 22.9805 30.4472C25.9388 30.4472 28.5201 28.8322 29.8912 26.4365L26.4331 24.4329Z" fill="white"/>
</svg>
